<?xml version="1.0" encoding="UTF-8"?>
<svg width="591px" height="498px" viewBox="0 0 591 498" version="1.1" xmlns="http://www.w3.org/2000/svg" xmlns:xlink="http://www.w3.org/1999/xlink">
    <!-- Generator: sketchtool 43.2 (39069) - http://www.bohemiancoding.com/sketch -->
    <title>B19B93C4-EEA8-4B1D-B91B-26557F246755</title>
    <desc>Created with sketchtool.</desc>
    <defs></defs>
    <g id="Page-1" stroke="none" stroke-width="1" fill="none" fill-rule="evenodd">
        <g id="Splash" transform="translate(-153.000000, -262.000000)">
            <g id="LOGO" transform="translate(153.000000, 262.000000)">
                <path d="M330.930056,67.7173367 L318.219549,43.7576809 L305.536284,19.810137 C305.536284,19.810137 305.515852,19.810137 305.515852,19.7980251 L295.49319,0.857518769 L295.49319,62.7102991 L297.352433,81.641116 L297.352433,81.6508055 L301.854118,127.935018 C304.432996,126.903088 306.837073,125.260722 308.896089,122.944937 L318.219549,112.376139 L327.579331,101.817031 C334.93231,93.4743906 336.426062,78.1214133 330.930056,67.7173367" id="Fill-1" fill="#E70883"></path>
                <path d="M285.470527,19.7980251 L285.470527,19.810137 L272.76683,43.7576809 L260.081295,67.7173367 C254.560317,78.1214133 256.063149,93.4743906 263.409318,101.817031 L272.76683,112.376139 L282.108451,122.944937 C284.158387,125.260722 286.555653,126.903088 289.132261,127.935018 L293.645297,81.6508055 L293.645297,81.641116 L295.49319,62.7102991 L295.49319,0.857518769 L285.470527,19.7980251" id="Fill-2" fill="#A9226C"></path>
                <path d="M153.784317,112.35676 L128.944459,104.997602 L104.086439,97.6554001 L84.4293076,91.8320241 L125.418933,135.548525 L139.296291,147.54652 L139.296291,147.55621 L156.819493,162.715398 L173.166762,176.874147 C174.27913,174.20954 174.907958,171.225181 174.817153,168.04461 L174.015794,139.01978 C173.695704,127.564395 164.601528,115.576089 153.784317,112.35676" id="Fill-3" fill="#3C75B5"></path>
                <path d="M89.8980718,112.77583 L89.8980718,112.795209 L96.8061041,139.310464 L103.684625,165.818453 C106.701639,177.348931 117.927475,187.052943 128.662961,187.404187 L142.265633,187.823256 L155.881925,188.268972 C158.851267,188.346488 161.657158,187.694871 164.147501,186.478841 L150.896701,169.035359 L136.690172,150.346779 L125.418933,135.548525 L84.4293076,91.8320241 L89.8980718,112.77583" id="Fill-4" fill="#4B92E2"></path>
                <path d="M62.8516385,275.188431 L40.4067765,288.71252 L17.9823457,302.277788 L17.9551041,302.277788 L0.213969588,312.96286 L58.1683423,312.96286 L75.9117469,311.000741 L75.9276379,311.000741 L98.3724999,308.510545 L119.294099,306.168114 C118.347451,303.44537 116.787866,300.867969 114.628964,298.68057 L104.706187,288.71252 L94.8106521,278.746892 C86.9991046,270.891148 72.6382068,269.285117 62.8516385,275.188431" id="Fill-5" fill="#4A9142"></path>
                <path d="M17.9551041,323.679422 L17.9823457,323.679422 L40.4067765,337.232579 L62.8516385,350.768779 C72.6382068,356.659982 86.9991046,355.056373 94.8288133,347.210318 L104.706187,337.232579 L114.628964,327.28633 C116.787866,325.079552 118.33837,322.51184 119.294099,319.779407 L98.3724999,317.436976 L75.9276379,314.94678 L75.9117469,314.94678 L58.1683423,312.96286 L0.213969588,312.96286 L17.9551041,323.679422" id="Fill-6" fill="#78BA42"></path>
                <path d="M255.152824,130.938756 L238.941763,117.424357 L222.739782,103.897846 L222.721621,103.897846 L209.918038,93.2030852 L227.61377,138.806612 L234.403755,152.165979 L234.403755,152.175668 L242.968989,169.093496 L250.968958,184.836475 C252.573946,183.242556 253.877006,181.239256 254.732848,178.855645 L262.4604,157.202085 C265.504656,148.646276 262.215225,136.84207 255.152824,130.938756" id="Fill-7" fill="#286F39"></path>
                <path d="M207.931667,110.440666 L207.931667,110.440666 L205.416353,132.24199 L202.919201,154.031203 C201.845425,163.531736 207.339161,174.345193 215.157519,178.090176 L225.064404,182.852554 L234.9781,187.607666 C237.146083,188.629905 239.398061,189.075621 241.575124,188.978727 L231.670508,153.391698 L231.670508,153.382008 L227.61377,138.806612 L209.918038,93.2030852 L207.931667,110.440666" id="Fill-8" fill="#4A9142"></path>
                <path d="M147.60727,215.309882 L127.185101,217.974488 L106.756122,220.648784 L90.5995447,222.768357 L133.328097,241.660416 L146.987522,245.969812 L146.987522,245.986768 L164.256467,251.463745 L180.347211,256.557988 C180.431206,254.222824 180.029391,251.841635 179.055502,249.528272 L174.590139,238.937673 L170.152018,228.378565 C166.633303,220.016546 156.501673,214.1423 147.60727,215.309882" id="Fill-9" fill="#D2AD30"></path>
                <path d="M100.613127,236.4499 L100.613127,236.4499 L113.289582,253.73835 L125.954686,271.055869 C131.477934,278.572481 142.54032,282.072805 150.55845,278.824408 L160.719591,274.711225 L170.871652,270.588352 C173.085037,269.684808 174.971522,268.284679 176.465274,266.601132 L161.704831,258.064702 L145.866073,248.886344 L145.847912,248.886344 L133.328097,241.660416 L90.5995447,222.768357 L100.613127,236.4499" id="Fill-10" fill="#FECF2F"></path>
                <path d="M121.518835,360.949998 L96.150034,395.546278 C96.150034,395.546278 96.150034,395.546278 96.150034,395.565657 L86.1341818,409.235087 L128.862734,390.352718 L141.40071,383.100144 L141.40071,383.119523 L172.011261,365.412002 C170.51524,363.701809 168.628755,362.321059 166.406289,361.395714 L156.265579,357.301909 L146.102168,353.169347 C138.093118,349.933062 127.030732,353.414007 121.518835,360.949998" id="Fill-11" fill="#D2AD30"></path>
                <path d="M102.281679,411.347393 L102.290759,411.347393 L122.712928,414.028956 L143.150987,416.703252 C152.045391,417.851455 162.17702,411.989321 165.695735,403.634569 L174.590139,382.487284 C175.554948,380.161809 175.965843,377.761241 175.884118,375.438189 L159.809265,380.542121 L142.531239,386.016676 L142.522159,386.016676 L128.862734,390.352718 L86.1341818,409.235087 L102.281679,411.347393" id="Fill-12" fill="#FECF2F"></path>
                <path d="M437.202062,112.35676 L462.04192,104.997602 L486.90221,97.6554001 L506.557072,91.8320241 L465.567446,135.548525 L451.717329,147.54652 L451.690088,147.55621 L434.166887,162.715398 L417.846859,176.874147 C416.707249,174.20954 416.105662,171.225181 416.169226,168.04461 L416.580121,153.52735 L416.972855,139.01978 C417.299755,127.564395 426.384851,115.576089 437.202062,112.35676" id="Fill-13" fill="#4A9142"></path>
                <path d="M501.106468,112.77583 L501.090577,112.795209 L494.182545,139.310464 L487.301755,165.818453 C484.302901,177.348931 473.058904,187.052943 462.332498,187.404187 L448.718476,187.823256 L435.104454,188.268972 C432.135112,188.346488 429.326951,187.694871 426.838879,186.478841 L440.089679,169.035359 L454.332529,150.346779 L465.567446,135.548525 L506.557072,91.8320241 L501.106468,112.77583" id="Fill-14" fill="#78BA42"></path>
                <path d="M528.143821,275.188431 L550.577333,288.71252 L573.031275,302.277788 L590.77241,312.96286 L532.818037,312.96286 L515.076902,311.000741 L492.62296,308.510545 L471.701361,306.168114 C472.648009,303.44537 474.198514,300.867969 476.375577,298.68057 L486.280192,288.71252 L496.175727,278.746892 C503.987275,270.891148 518.348172,269.285117 528.143821,275.188431" id="Fill-15" fill="#4A9142"></path>
                <path d="M573.031275,323.679422 L573.031275,323.679422 L550.577333,337.232579 L528.143821,350.768779 C518.348172,356.659982 503.987275,355.056373 496.175727,347.210318 L486.280192,337.232579 L476.375577,327.28633 C474.198514,325.079552 472.648009,322.51184 471.701361,319.779407 L492.62296,317.436976 L515.076902,314.94678 L532.818037,312.96286 L590.77241,312.96286 L573.031275,323.679422" id="Fill-16" fill="#78BA42"></path>
                <path d="M335.842636,130.938756 L368.255677,103.897846 L368.267028,103.897846 L381.095582,93.2030852 L363.370339,138.806612 L356.591704,152.165979 L356.591704,152.175668 L348.01739,169.093496 L340.015151,184.836475 C338.412433,183.242556 337.109374,181.239256 336.253531,178.855645 L328.525979,157.202085 C325.481723,148.646276 328.771154,136.84207 335.842636,130.938756" id="Fill-17" fill="#FECF2F"></path>
                <path d="M383.072873,110.440666 L383.072873,110.440666 L388.064908,154.031203 C389.143224,163.531736 383.647218,174.345193 375.837941,178.090176 L365.931055,182.852554 L356.008279,187.607666 C353.840296,188.629905 351.599669,189.075621 349.411256,188.978727 L354.203518,171.816239 L359.324952,153.391698 L359.324952,153.382008 L363.370339,138.806612 L381.095582,93.2030852 L383.072873,110.440666" id="Fill-18" fill="#D2AD30"></path>
                <path d="M443.39046,215.309882 L463.819439,217.974488 L484.232527,220.648784 L484.257498,220.648784 L500.386834,222.768357 L457.660553,241.660416 L443.998858,245.969812 L443.998858,245.986768 L426.741263,251.463745 L410.639168,256.557988 C410.557443,254.222824 410.975149,251.841635 411.933147,249.528272 L416.39851,238.937673 L420.836632,228.378565 C424.362157,220.016546 434.496057,214.1423 443.39046,215.309882" id="Fill-19" fill="#4B92E2"></path>
                <path d="M490.373252,236.4499 L490.373252,236.4499 L477.705878,253.73835 L465.031693,271.055869 C459.508446,278.572481 448.45514,282.072805 440.44609,278.824408 L430.29403,274.711225 L420.123808,270.588352 C417.901342,269.684808 416.014857,268.284679 414.546077,266.601132 L429.299709,258.064702 L445.138467,248.886344 L457.660553,241.660416 L500.386834,222.768357 L490.373252,236.4499" id="Fill-20" fill="#3C75B5"></path>
                <path d="M469.497056,360.949998 L482.15308,378.248138 L494.838615,395.546278 C494.838615,395.546278 494.838615,395.546278 494.838615,395.565657 L504.861278,409.235087 L462.123645,390.352718 L449.59475,383.100144 L449.59475,383.119523 L433.765072,373.950854 L419.00236,365.412002 C420.48022,363.701809 422.357625,362.321059 424.589171,361.395714 L434.732151,357.301909 L444.902373,353.169347 C452.911422,349.933062 463.955647,353.414007 469.497056,360.949998" id="Fill-21" fill="#E70883"></path>
                <path d="M488.713781,411.347393 L488.69789,411.347393 L468.273451,414.028956 L447.844473,416.703252 C438.950069,417.851455 428.809359,411.989321 425.301995,403.634569 L420.845712,393.056082 L416.39851,382.487284 C415.431431,380.161809 415.020536,377.761241 415.104531,375.438189 L431.204355,380.542121 L448.45514,386.016676 L448.46422,386.016676 L462.123645,390.352718 L504.861278,409.235087 L488.713781,411.347393" id="Fill-22" fill="#A9226C"></path>
                <path d="M198.226152,319.375892 C198.226152,392.288101 256.86726,462.17391 295.348575,497.795701 C295.393072,497.74878 295.448693,497.701859 295.49319,497.654938 L295.49319,216.80085 C241.863524,216.80085 198.226152,262.81563 198.226152,319.375892" id="Fill-23" fill="#78BA42"></path>
                <path d="M392.760227,319.375892 C392.760227,262.81563 349.120074,216.80085 295.49319,216.80085 L295.49319,497.654938 C328.949157,466.625534 392.760227,397.267586 392.760227,319.375892" id="Fill-24" fill="#4A9142"></path>
            </g>
        </g>
    </g>
</svg>